<svg width="85" height="89" viewBox="0 0 85 89" fill="none" xmlns="http://www.w3.org/2000/svg">
<circle opacity="0.7" cx="46.0206" cy="27.4796" r="18.9796" fill="white"/>
<g filter="url(#filter0_d)">
<path d="M40.8961 33.7509L41.4822 32.9407L41.4822 32.9407L40.8961 33.7509ZM46.4683 37.7816H47.4683C47.4683 37.4608 47.3144 37.1594 47.0544 36.9714L46.4683 37.7816ZM38.8572 32.276L39.4433 31.4658C39.4231 31.4512 39.4024 31.4373 39.3812 31.4243L38.8572 32.276ZM38.0369 31.7035L38.6553 30.9176L38.6553 30.9176L38.0369 31.7035ZM44.4374 19.0622L44.0324 19.9766V19.9766L44.4374 19.0622ZM46.5461 20.5471H47.5461C47.5461 20.2847 47.4429 20.0328 47.2588 19.8457L46.5461 20.5471ZM46.5461 20.5606H45.5461C45.5461 20.9736 45.8 21.3442 46.1852 21.4932C46.5704 21.6423 47.0076 21.5392 47.2856 21.2338L46.5461 20.5606ZM49.0807 18.8652L48.7601 17.918V17.918L49.0807 18.8652ZM55.0004 31.7311L55.6122 32.5221L55.0004 31.7311ZM54.209 32.2766L53.6877 31.4232C53.6664 31.4362 53.6457 31.45 53.6255 31.4645L54.209 32.2766ZM53.284 32.9411L53.8675 33.7532L53.284 32.9411ZM46.5461 37.7816L45.9626 36.9694C45.7011 37.1573 45.5461 37.4596 45.5461 37.7816H46.5461ZM46.5461 37.8379L45.96 38.6481C46.2643 38.8683 46.6664 38.8993 47.001 38.7284C47.3355 38.5575 47.5461 38.2135 47.5461 37.8379H46.5461ZM46.5071 37.8096L47.0932 36.9994C46.7444 36.7471 46.2732 36.7463 45.9236 36.9975L46.5071 37.8096ZM46.4683 37.8375H45.4683C45.4683 38.2125 45.6782 38.5561 46.0119 38.7272C46.3457 38.8984 46.7472 38.8684 47.0518 38.6496L46.4683 37.8375ZM40.31 34.5612L45.8822 38.5919L47.0544 36.9714L41.4822 32.9407L40.31 34.5612ZM38.2711 33.0862L40.31 34.5612L41.4822 32.9407L39.4433 31.4658L38.2711 33.0862ZM37.4185 32.4893C37.7109 32.7194 38.0165 32.9329 38.3331 33.1277L39.3812 31.4243C39.1305 31.2701 38.8879 31.1007 38.6553 30.9176L37.4185 32.4893ZM33.9684 25.8439C33.9684 28.4981 35.418 30.915 37.4185 32.4893L38.6553 30.9176C37.0315 29.6398 35.9684 27.7625 35.9684 25.8439H33.9684ZM42.1355 17.5684C37.6108 17.5684 33.9684 21.2877 33.9684 25.8439H35.9684C35.9684 22.3638 38.7436 19.5684 42.1355 19.5684V17.5684ZM44.8424 18.1479C44.0081 17.7784 43.0975 17.5684 42.1355 17.5684V19.5684C42.8013 19.5684 43.4371 19.7129 44.0324 19.9766L44.8424 18.1479ZM47.2588 19.8457C46.5633 19.139 45.7508 18.5502 44.8424 18.1479L44.0324 19.9766C44.6842 20.2652 45.2928 20.6993 45.8333 21.2486L47.2588 19.8457ZM47.5461 20.5606V20.5471H45.5461V20.5606H47.5461ZM47.2856 21.2338C47.8862 20.5739 48.5999 20.0837 49.4013 19.8124L48.7601 17.918C47.5998 18.3107 46.6071 19.008 45.8066 19.8875L47.2856 21.2338ZM49.4013 19.8124C49.8661 19.6551 50.3688 19.5683 50.9091 19.5683V17.5683C50.1511 17.5683 49.4317 17.6906 48.7601 17.918L49.4013 19.8124ZM50.9091 19.5683C54.3348 19.5683 57.1257 22.3703 57.1257 25.8439H59.1257C59.1257 21.2811 55.4546 17.5683 50.9091 17.5683V19.5683ZM57.1257 25.8439C57.1257 27.7721 56.0425 29.661 54.3886 30.9401L55.6122 32.5221C57.6459 30.9494 59.1257 28.518 59.1257 25.8439H57.1257ZM54.3886 30.9401C54.1636 31.1141 53.9294 31.2756 53.6877 31.4232L54.7303 33.13C55.035 32.9438 55.3296 32.7406 55.6122 32.5221L54.3886 30.9401ZM53.6255 31.4645L52.7006 32.1289L53.8675 33.7532L54.7924 33.0888L53.6255 31.4645ZM52.7006 32.1289L45.9626 36.9694L47.1295 38.5938L53.8675 33.7532L52.7006 32.1289ZM47.5461 37.8379V37.7816H45.5461V37.8379H47.5461ZM45.921 38.6199L45.96 38.6481L47.1322 37.0276L47.0932 36.9994L45.921 38.6199ZM45.9236 36.9975L45.8849 37.0253L47.0518 38.6496L47.0905 38.6218L45.9236 36.9975ZM47.4683 37.8375V37.7816H45.4683V37.8375H47.4683Z" fill="#787878"/>
</g>
<defs>
<filter id="filter0_d" x="0.67733" y="0.922802" width="91.7394" height="87.8516" filterUnits="userSpaceOnUse" color-interpolation-filters="sRGB">
<feFlood flood-opacity="0" result="BackgroundImageFix"/>
<feColorMatrix in="SourceAlpha" type="matrix" values="0 0 0 0 0 0 0 0 0 0 0 0 0 0 0 0 0 0 127 0"/>
<feOffset dy="16.6455"/>
<feGaussianBlur stdDeviation="16.6455"/>
<feColorMatrix type="matrix" values="0 0 0 0 0 0 0 0 0 0 0 0 0 0 0 0 0 0 0.25 0"/>
<feBlend mode="normal" in2="BackgroundImageFix" result="effect1_dropShadow"/>
<feBlend mode="normal" in="SourceGraphic" in2="effect1_dropShadow" result="shape"/>
</filter>
</defs>
</svg>
